<svg xmlns="http://www.w3.org/2000/svg" viewBox="0 0 451 504"><defs><style>.cls-1{fill:#fefefe;}.cls-2{fill:#4d4d4f;}.cls-3{fill:#4a4a4c;}.cls-4{fill:#626365;}.cls-5{fill:#eaf6fc;}.cls-6{fill:#f9f9fa;}.cls-7{fill:#f7f7f7;}.cls-8{fill:#868688;}.cls-9{fill:#fbfbfb;}.cls-10{fill:#f5f5f5;}.cls-11{fill:#f0f0f0;}.cls-12{fill:#f6f6f6;}.cls-13{fill:#535355;}.cls-14{fill:#d40000;}.cls-15{fill:#4bc943;}.cls-16{fill:#fefcfc;}</style></defs><g id="Layer_2" data-name="Layer 2"><g id="Layer_1-2" data-name="Layer 1"><path class="cls-1" d="M.1,252Q.1,128,0,4.09C0,.67.67,0,4.09,0Q225.5.17,446.91,0c3.42,0,4.09.67,4.09,4.09q-.17,247.91,0,495.82c0,3.42-.67,4.09-4.09,4.09q-221.42-.17-442.82,0C.67,504,0,503.33,0,499.91Q.18,375.95.1,252Zm9,239.91c-.65,7-.65,7,6.33,7H439.05c6.36,0,6.36,0,6.09-6.55a10.79,10.79,0,0,0-.26-1.47c.06-5.81,0-11.62.22-17.43a10.56,10.56,0,0,0-2-6.46q-23.19-34.81-46.17-69.78c-1.69-2.58-3.45-3.37-6.41-3.35-22.27.12-44.54.08-66.81,0-1.92,0-4,.65-5.7-1L304.17,353.7H418c6.87,0,6.94-.08,6.94-7q0-166.41,0-332.81c0-6.78,0-6.79-6.56-6.79H36.58c-6.53,0-6.54,0-6.54,6.77V346.68c0,7,0,7,6.88,7H154.48c-5.34,10.92-10.33,21.2-15.39,31.44a23.3,23.3,0,0,0-2.84,9.47c-1.65.11-3.29.31-4.93.32-23.6.15-47.2.33-70.8.34-3,0-4.77.87-6.33,3.5q-21.58,36.41-43.4,72.67c-1,1.72-2,3.36-1.89,5.52C9.09,481.94,9.06,486.92,9.11,491.91Z"/><path class="cls-2" d="M136.25,394.61a23.3,23.3,0,0,1,2.84-9.47c5.06-10.24,10-20.52,15.39-31.44H36.92c-6.87,0-6.88,0-6.88-7V13.87c0-6.76,0-6.77,6.54-6.77H418.34c6.56,0,6.56,0,6.56,6.79q0,166.41,0,332.81c0,6.91-.07,7-6.94,7H304.17L318,392.94a9.34,9.34,0,0,1-4.8,1q-41.1,0-82.18.84c-29.25.64-58.53.15-87.79.13C140.89,394.93,138.57,394.72,136.25,394.61ZM227.8,35.2H73.9c-8.19,0-9.72,1.48-9.72,9.44q0,125.93,0,251.84c0,7.54,1.54,9.12,9,9.12H381.49c7.79,0,9.25-1.5,9.25-9.42V44.84c0-8.14-1.48-9.64-9.54-9.64ZM342.68,329.72c0,7,3.68,12.3,8.4,12.24s8.36-5.45,8.34-12.35-3.85-12.36-8.46-12.33S342.65,322.86,342.68,329.72Zm31.06,0c0,6.55,3.63,11.74,8.26,11.88s8.54-5.12,8.72-11.54c.19-6.6-3.61-12.16-8.39-12.28S373.71,322.82,373.74,329.76ZM156.15,353.17l0,.45H301.82v-.45Z"/><path class="cls-3" d="M136.25,394.61c2.32.11,4.64.32,7,.32,29.26,0,58.54.51,87.79-.13q41.08-.9,82.18-.84a9.34,9.34,0,0,0,4.8-1c1.67,1.63,3.78,1,5.7,1,22.27,0,44.54.08,66.81,0,3,0,4.72.77,6.41,3.35q22.92,35,46.17,69.78a10.56,10.56,0,0,1,2,6.46c-.19,5.81-.16,11.62-.22,17.43l-435.77,1c0-5,0-10-.21-15-.08-2.16.86-3.8,1.89-5.52q21.75-36.3,43.4-72.67c1.56-2.63,3.33-3.5,6.33-3.5,23.6,0,47.2-.19,70.8-.34C133,394.92,134.6,394.72,136.25,394.61ZM199,412.93v4c-7.11,0-7.12,0-7.09,7.46,0,1.5.08,3,.13,4.49-.29,2.45-2.18,2-3.78,2.07s-3.08-.05-3.25,2.09c-9.61.78-9.61.78-9.6,10.79a23.14,23.14,0,0,1,0,2.5c-.21,2.07.35,3.05,2.73,2.75,5.12-.64,10.26-1,15.39-1.56,1.06-.12,2.79.14,2.65-1.52-.38-4.33,1.39-8.87-1.17-13l0-3.8h9.27c-.09,1.28-.19,2.55-.28,3.83l-1,1.91c-3,2.68-3,8.32,0,11,.3.38.6,1.08.91,1.08,6.75.09,13.5.12,20.25.13,1.16,0,2-.56,1.77-1.79-.61-4.13.58-8.55-2-12.36,0-1.27,0-2.54,0-3.81,2.12-.07,4.24-.2,6.36-.2,10,0,10,0,10.54-10,1.78-3.07-.85-2.93-2.41-3-6.16-.13-12.32-.16-18.47,0-1.9.06-4,.5-5.26,2.33L201,417c0-1.37,0-2.74,0-4.11,5,.64,4.28-2.78,4.44-5.93.21-4-2.55-3-4.65-3-3.32-.08-6.64.13-10-.07-2.73-.16-3.66.66-3.78,3.56-.16,3.87.53,6,5,5.31C194.34,412.44,196.7,412.85,199,412.93Zm155,.15c-1.19-8.9-1.44-9.14-9.66-9.14h-6.44c-6.78,0-6.69,0-4.73,6.4.67,2.18,1.76,2.78,3.89,2.72,3.29-.1,6.59.09,9.88.15l-.06,2.52q1.88,4.89,3.73,9.78c.47,1.26.85,2.57,2.58,2.57h19.89l-8.28-11.63c-.26-1.08-.52-2.15-.79-3.23h8.92l0,3.86c1.27,9.68,4,12.17,13,12,1.33,0,2.65.05,4,.08l1,.79c3.28,5.95,4.32,12.85,7.95,18.66l-.94,4.46c-8.32.09-16.63.25-24.95.21-2.84,0-3.53.69-2.37,3.43,1.81,4.29,3.37,8.69,4.91,13.09.61,1.73,1.3,2.8,3.44,2.79,17.81-.07,35.62,0,53.44,0,1.73,0,3.16-.09,1.89-2.45-2.9-5.43-4.73-11.93-8.93-16-3-2.88-9.22-.52-14-.82-.83-.06-1.65-.16-2.48-.25l-.36-4h14c-6.3-10.58-12.24-20.55-18.17-30.53a3.84,3.84,0,0,0-2.48-1.53c-.25-3.07-4.23-1.54-5-4-1.58-3.45-3.17-6.89-4.74-10.35-.57-1.25-1.21-2.32-2.85-2.32-11.66,0-23.32,0-35.62,0L360,411.73c-.37,1.14-.75,2.29-1.12,3.44a8.07,8.07,0,0,1-4.91,0C354,414.47,354,413.78,354,413.08Zm-172-7.14c-.26-2-1.69-2.06-3.26-2-3.29.05-6.64.42-9.85-.08-5.42-.84-7.46,1.62-7.63,6.57,0,.81,0,1.62,0,2.44-1.25.54-1.24,1.65-1.26,2.75l-7,.33,0-3.47c2.73.09,4.11-.68,4-4-.35-7.87.35-6.2-6.4-6.36a34.28,34.28,0,0,1-5-.05c-4.86-.84-7.12,1.23-8.14,5.95-.59,2.76-.68,3.88,2.57,3.82,3.64-.07,7.28.32,10.93.51l0,3.66c-2.22,1.43-6-1.29-7.22,3.27-2.63,9.6-2.84,9.54,7,9.75a14.67,14.67,0,0,1,1.47.16L152,433c-1.73.86-1.57,2.79-2.39,4.17l-3.52-.24c.64-3.14-.45-4.31-3.81-4.16-5.07.24-10.17,0-15.26-.12l0-3.7c2.5-1,5.86,1.65,7.72-1.66,1.46-2.6,2.55-5.41,3.85-8.11.83-1.71.33-2.51-1.54-2.45-7.63.23-15.29-.57-22.91.42-7.41-2.55-15-.95-22.51-.79-1.09,0-2,1.34-.59,2.58a38.88,38.88,0,0,1,0,6.38c-.49,3.34,1.34,3.88,3.93,3.85l0,3.87-.23.19-.28-.11-3.81-.07L89.06,433c-.32-3.43-4.8-.92-5.48-3.84.74-3.06,1.42-6.14,2.23-9.18.58-2.18-.07-3-2.38-3-9.82,0-19.65-.12-29.47-.25-1.75,0-2.8.52-3.26,2.29-.86,3.36-2.83,6.4-2.92,10-.61,2.46-4.5,1-4.7,4-4.39,3.6-5.58,9-8.92,14.23h42.5c9.39,0,9.39,0,12.75-8.54a3.78,3.78,0,0,1,3,1.88,7.15,7.15,0,0,1-.2,1.93c-1.66,4.21.29,5,4.06,4.75,4.45-.26,8.92,0,13.38-.06,1.23,0,2.93.55,3.2-1.37.61-4.29,3.07-8.27,2.16-12.82.17-1.84-4.57-2.88-.86-5.3l9.87,1.16,0,3.81c-1.77,1.37-5.46,11.72-4.73,13.25.56,1.16,1.66.87,2.58.88,7.43.09,14.87.14,22.31.2l2.68.08c.28.37.55,1.07.82,1.07,7.14.06,14.28,0,21.42,0,1.1,0,2.09-.37,2-1.64-.41-4.51,1.31-9.18-1.06-13.53-.25-2.4-2.08-2.06-3.65-2-1.75,0-3.26-.18-3.49-2.37a.51.51,0,0,1,.23-.64l2.55.1c6.61,0,13.22.07,19.82,0,1.21,0,2.66.52,3.47-1.07,1.89-3.73-.53-8.67-4.58-9.33A20.24,20.24,0,0,1,182,417l-.15-4.5a.38.38,0,0,1,.1-.58C185.17,410,185.11,408,182,405.94Zm114.12,21.69c4.75,1.11,9.58.39,14.36.48,7.7.13,7.64.06,4.53-7-.83-1.89-1.76-2.94-4-2.86-4,.16-8,.06-11.95,0-1.35,0-2.71-.12-3,1.69l-4.33,1c-.57-2-1.74-2.89-4-2.74-3.31.2-6.64,0-10,0-7.9,0-7.8,0-7.2,7.9.16,2.14.79,2.89,2.92,2.84,3.48-.07,7,.1,10.45.16l0,3.82c-1.3,4.78,1.76,8.77,2.41,13.19.15,1,1.17,1,2,1h21C306.8,442.1,306.92,436.7,303,433c-.85-3.45-3.67-1.54-5.59-2-1-.26-2.56.46-2.79-1.05C294.48,429.24,295.58,428.4,296.13,427.63Zm-50-9.25c-.36,10.5-.36,10.49,9.85,10.61,1,0,2,.13,3,.2,0,1.27,0,2.54,0,3.81l-1,.93c-2.9,2.67-2.93,11.23,0,14,.73,2,2.44,1.29,3.81,1.31,4.8,0,9.6,0,14.39,0,6.58,0,6.58,0,5.07-6.33-2.17-9.12-2.17-9.12-11.26-9.88-.37-3-4.11-1.8-5-4.1q-.06-5.3-.13-10.58c.1-1.26-.27-2.24-1.69-2.35-1.94-.16-2.2-1.46-2.15-3,3.81,0,7.63-.06,11.44,0,6.52.05,6.3.09,5.7-6.19-.32-3.42-1.63-4.52-5-4.29-3.8.26-7.64,0-11.46,0-1.39,0-3.11-.61-3.73,1.46l-2.15,0c-.35-2.11-2-1.81-3.44-1.81H242c-7.56,0-7.47,0-6.93,7.72.14,2.12.76,2.9,2.9,2.84,5.95-.16,11.9-.16,17.85-.22.72,3.82-1.94,3.24-4.27,3.52C249.58,416.24,246.48,414.36,246.15,418.38ZM229.86,406c0-2.61-.7-4.21-4-3.88a53.84,53.84,0,0,1-10.77,0c-3.26-.33-3.93,1.28-4,3.88-3.2,2.56-3.1,5,.3,6.82h18.08C232.92,410.9,233,408.52,229.86,406Zm-125.81,5.92c2.21-.95,5.1-6.9,4.39-8.87-.4-1.11-1.29-.87-2-.88-5.16,0-10.32.06-15.48-.05-2.66-.05-3.09,1.95-3.17,3.63-.09,2-3.82,4.37.3,6.17.17,1.05.57,2,1.8,2q6.19.06,12.39,0C103.48,413.84,103.88,412.92,104.05,411.87ZM301,413c.27.5.49,1.4.83,1.45,1.09.16,1-.84,1.16-1.57-.11-10.1-.73-10.76-10.22-10.76a37.59,37.59,0,0,1-5,0c-4.14-.58-4.72.95-4.28,4.92.53,4.8,2,6.75,7,6C293.94,412.55,297.48,413,301,413Zm37,15.77,7.81-.9c-3.42-11.1-4-11.5-14.44-10.41-10.8,1.13-10.8,1.13-6.76,11.6-.59,1.5-2.6,2.08-2.57,4a33.12,33.12,0,0,1-5.43.22c-3.43-.4-4.05.92-3.72,4.16,1,9.75.84,9.88,9.78,9.72,4.39-.09,10.45,2,12.75-1s-.86-8.42-1.55-12.8l3.51-.26a6,6,0,0,0,.14,1.91c5.25,12.17,5.26,12.17,18.49,12.17,10.6,0,10.42.09,5.72-9.68-1.64-3.42-3.65-4.45-7.26-4.27-5.14.27-10.3-.07-15.46-.16C338.61,431.63,338.27,430.19,337.93,428.76ZM94.87,453c-5.82-.05-11.64-.22-17.45-.13-5.28.09-11.93-2.45-15.44.7s-3.64,9.67-5.27,14.72a3.75,3.75,0,0,1-.17.47c-1.21,2.71-.2,3.46,2.58,3.37,6.31-.2,12.63-.15,18.94-.2a1.86,1.86,0,0,0,2.28,1.91c1.24-.1,1.61-.94,1.72-2,3.13-1.48,7.61,1.59,9.83-2.94l3.2,0c-.39,2.2.22,3.23,2.76,3.12,5.06-.22,10.13-.1,15.2-.13a1.87,1.87,0,0,0,2.28,1.93c1.24-.1,1.61-.94,1.71-2,1.64-.13,3.34-.61,4.91-.33,6.16,1.12,9-1.61,9.49-7.55l3.5,0a13.58,13.58,0,0,1,.17,3c-.65,4.1.87,5.64,5.1,5.23,3.79-.36,7.64-.06,11.46,0q49.61.15,99.2.28c2,0,4.57,1,5-2.4a18.72,18.72,0,0,0,0-14.09,2.66,2.66,0,0,0-2.82-2.82c-5.72-3.74-12-1.86-18.11-1.72-.32,0-.62,1-.92,1.57-16.61,0-33.21,0-49.82-.15-16.27-.14-32.54-.46-48.81-.7l-1.51-.29-28.81.15a1.86,1.86,0,0,0-2.28-1.91c-1.23.09-1.6.92-1.71,2l-1.92.93Zm182.51,19.56c4.33,0,8.65-.11,13,.05,2.38.08,3.32-.48,2.85-3.08-.8-4.41-1.41-8.87-1.87-13.33-.24-2.39-1.35-3-3.56-3-7.81.1-15.63.13-23.45,0-2.52,0-3.07,1-3,3.25.13,4.32.14,8.65,0,13-.08,2.36.68,3.24,3.1,3.15C268.73,472.45,273.06,472.56,277.38,472.56Zm38.5-.32v.3c3.82,0,7.65-.14,11.46,0,3,.14,4.35-.47,3.22-3.88a101.86,101.86,0,0,1-3.17-12c-.52-2.6-1.63-3.49-4.31-3.43-7.3.18-14.61.26-21.91,0-3.93-.14-5.1.9-3.74,4.75,1.64,4.66.7,11.36,4.36,13.81C305.12,474,311.08,472.24,315.88,472.24Zm37.48.39c4.86,0,8.85-.08,12.83,0,2.41.06,2.88-.69,2-2.9-1.72-4.14-3.72-8.25-4.72-12.57-.83-3.63-2.59-4.18-5.8-4.06-6.14.22-12.31.35-18.43,0-4.51-.28-5.47,1-3.95,5.18,1.64,4.51,1.48,10.64,4.53,13.4C343.11,474.72,349.31,472.18,353.36,472.63Zm-318.88-.57c3.82,0,7.63-.08,11.44,0,1.87.05,3.07-.4,3.76-2.34,1.78-5,3.73-9.92,5.64-14.87.54-1.41.9-2.61-1.34-2.59-7.78.07-16.16-1.62-23.16.76-5,1.71-6.21,10-9.39,15.21-.08.14-.14.3-.23.44-1.5,2.29-1.39,3.53,1.85,3.39C26.85,471.93,30.67,472.06,34.48,472.06ZM241,447.14c2.65,0,5.3,0,7.94,0,1.09,0,2.74.31,2.82-1.22.2-3.79.13-7.6,0-11.39,0-1.34-1.33-1.23-2.3-1.23-5.62,0-11.25,0-16.87,0-1.77,0-2.56.5-2.81,2.48-1.36,10.74-.85,11.41,9.72,11.41Zm139.9,1.13c2,0,4-.1,6,0,2.9.18,3.86-.39,2.53-3.58-4.72-11.36-4.61-11.4-16.93-11.4-1.16,0-2.33.08-3.49,0-2.49-.2-3.18.4-2.19,3.06C371.14,448.09,371.06,448.12,380.87,448.27Zm-311.28-36h6c6.77,0,6.58,0,7.86-6.9.54-2.9-.33-3.41-2.89-3.32-4.31.14-8.62,0-12.94,0-7.68,0-7.58,0-9.91,7.23-.72,2.22-.48,3,2,3C63,412.24,66.28,412.3,69.59,412.31Zm64.93-10.19c-5.91,0-11.83.06-17.75,0-1.81,0-2.52.74-3.17,2.36-3,7.56-2.89,7.87,5.12,7.87h4.48c9.08,0,9.08,0,11.31-8.81A7.38,7.38,0,0,0,134.52,402.12ZM305.59,404c2.7,3.14.92,8.59,6.4,8.93,4.47.27,9,.08,13.47,0,.89,0,2,.38,2.49-1,1.29-3.4-2.76-9.63-6.32-9.41C316.51,402.94,311.4,403.5,305.59,404Z"/><path class="cls-4" d="M9.11,491.91l435.77-1a10.79,10.79,0,0,1,.26,1.47c.27,6.55.27,6.55-6.09,6.55H15.44C8.46,498.92,8.46,498.92,9.11,491.91Z"/><path class="cls-5" d="M227.8,35.2H381.2c8.06,0,9.54,1.5,9.54,9.64V296.18c0,7.92-1.46,9.42-9.25,9.42H73.2c-7.48,0-9-1.58-9-9.12q0-125.93,0-251.84c0-8,1.53-9.44,9.72-9.44ZM329.37,280.81c-4.29-8.88-7.68-16.47-11.61-23.77a13.16,13.16,0,0,1-.91-11.68,164.87,164.87,0,0,0,9-42.31C328.91,162.41,320,124.41,300,88.93c-1.78-3.15-2.62-2.87-4.63-.23-12.58,16.58-25.34,33-38,49.54q-45.72,59.65-91.47,119.3c-2.4,3.12-3,5.08.18,8.23,6.73,6.73,13.62,13.13,21.76,18.2,30.84,19.19,70.5,15.95,97.14-8.67,4.74-4.38,8.69-5.07,14.45-3.15C308.84,275.28,318.47,277.7,329.37,280.81ZM218.73,43.12C194,43.54,175,52.64,159.15,68.66c-14.5,14.69-24.31,32.39-31.08,51.75A179.73,179.73,0,0,0,118.12,188a18,18,0,0,1-4.1,12.79c-4.74,6-8.81,12.5-13.29,18.69-1.89,2.61-1.72,3.41,1.75,3.7,8.46.71,16.93.92,25.4.8,2.81,0,4.58.72,5.94,3.37,3.49,6.81,7.56,13.32,10.9,20.2,2,4.12,3.5,3.47,5.75.5,2.81-3.72,5.68-7.37,8.57-11q29.55-37.32,59.12-74.62,33-41.59,66-83.17c2-2.47,2.26-4.66-.05-7-1.39-1.42-2.48-3.18-4-4.42C261.7,52.71,240.79,44,218.73,43.12Z"/><path class="cls-6" d="M342.68,329.72c0-6.86,3.66-12.4,8.28-12.44s8.44,5.56,8.46,12.33-3.63,12.3-8.34,12.35S342.71,336.7,342.68,329.72Z"/><path class="cls-7" d="M373.74,329.76c0-6.94,3.66-12.07,8.59-11.94s8.58,5.68,8.39,12.28c-.18,6.42-4.15,11.67-8.72,11.54S373.76,336.31,373.74,329.76Z"/><path class="cls-8" d="M156.15,353.17H301.82v.45H156.18Z"/><path class="cls-9" d="M135.37,452.06c16.27.24,32.54.56,48.81.7,16.61.14,33.21.11,49.82.15a130,130,0,0,0,19,.15,2.67,2.67,0,0,1,2.83,2.82,51.94,51.94,0,0,0,0,14.09c-.42,3.37-3,2.4-5,2.4q-49.59-.11-99.2-.28c-3.82,0-7.67-.32-11.46,0-4.23.41-5.75-1.13-5.1-5.23a13.58,13.58,0,0,0-.17-3Q135.17,458,135.37,452.06Z"/><path class="cls-10" d="M408.91,453.05c.83.09,1.65.19,2.48.25,4.76.3,11-2.06,14,.82,4.2,4,6,10.54,8.93,16,1.27,2.36-.16,2.45-1.89,2.45-17.82,0-35.63,0-53.44,0-2.14,0-2.83-1.06-3.44-2.79-1.54-4.4-3.1-8.8-4.91-13.09-1.16-2.74-.47-3.44,2.37-3.43,8.32,0,16.63-.12,24.95-.21A42.85,42.85,0,0,0,408.91,453.05Z"/><path class="cls-7" d="M398.88,448.59c-3.63-5.81-4.67-12.71-7.95-18.66,0-.66-.32-.95-1-.79-1.32,0-2.64-.11-4-.08-9,.19-11.75-2.3-13-12l29-.1a3.84,3.84,0,0,1,2.48,1.53c5.93,10,11.87,19.95,18.17,30.53h-14Z"/><path class="cls-7" d="M89.41,438.67c-3.36,8.54-3.36,8.54-12.75,8.54H34.16C37.5,442,38.69,436.58,43.08,433q23,.64,46,0l1.69.08C90.31,434.92,89.86,436.8,89.41,438.67Z"/><path class="cls-6" d="M105.05,451.92l28.81-.15q-1.22,6.09-2.42,12.18c-.44,5.94-3.33,8.67-9.49,7.55-1.57-.28-3.27.2-4.91.33l-4,.08c-5.07,0-10.14-.09-15.2.13-2.54.11-3.15-.92-2.76-3.12a88.8,88.8,0,0,0,4-16l1.92-.93Z"/><path class="cls-6" d="M91.89,468.9c-2.22,4.53-6.7,1.46-9.83,2.94l-4,.09c-6.31.05-12.63,0-18.94.2-2.78.09-3.79-.66-2.58-3.37a3.75,3.75,0,0,0,.17-.47c1.63-5.05,1.86-11.66,5.27-14.72s10.16-.61,15.44-.7c5.81-.09,11.63.08,17.45.13C95.33,458.57,92.11,463.45,91.89,468.9Z"/><path class="cls-11" d="M277.38,472.56c-4.32,0-8.65-.11-13,0-2.42.09-3.18-.79-3.1-3.15.15-4.32.14-8.65,0-13-.07-2.26.48-3.29,3-3.25,7.82.14,15.64.11,23.45,0,2.21,0,3.32.57,3.56,3,.46,4.46,1.07,8.92,1.87,13.33.47,2.6-.47,3.16-2.85,3.08C286,472.45,281.71,472.56,277.38,472.56Z"/><path class="cls-10" d="M315.88,472.24c-4.8,0-10.76,1.75-14.09-.46-3.66-2.45-2.72-9.15-4.36-13.81-1.36-3.85-.19-4.89,3.74-4.75,7.3.28,14.61.2,21.91,0,2.68-.06,3.79.83,4.31,3.43a101.86,101.86,0,0,0,3.17,12c1.13,3.41-.19,4-3.22,3.88-3.81-.18-7.64,0-11.46,0Z"/><path class="cls-10" d="M353.36,472.63c-4.05-.45-10.25,2.09-13.58-.94-3-2.76-2.89-8.89-4.53-13.4-1.52-4.17-.56-5.46,3.95-5.18,6.12.38,12.29.25,18.43,0,3.21-.12,5,.43,5.8,4.06,1,4.32,3,8.43,4.72,12.57.92,2.21.45,3-2,2.9C362.21,472.55,358.22,472.63,353.36,472.63Z"/><path class="cls-7" d="M34.48,472.06c-3.81,0-7.63-.13-11.43,0-3.24.14-3.35-1.1-1.85-3.39.09-.14.15-.3.23-.44,3.18-5.2,4.36-13.5,9.39-15.21,7-2.38,15.38-.69,23.16-.76,2.24,0,1.88,1.18,1.34,2.59-1.91,4.95-3.86,9.88-5.64,14.87-.69,1.94-1.89,2.39-3.76,2.34C42.11,472,38.3,472.06,34.48,472.06Z"/><path class="cls-10" d="M372.92,413.22H364c-1.4-.28-2.93-.22-4-1.49l-6.28-11.44c12.3,0,24,0,35.62,0,1.64,0,2.28,1.07,2.85,2.32,1.57,3.46,3.16,6.9,4.74,10.35Z"/><path class="cls-6" d="M47.78,429c.09-3.59,2.06-6.63,2.92-10,.46-1.77,1.51-2.32,3.26-2.29,9.82.13,19.65.25,29.47.25,2.31,0,3,.79,2.38,3-.81,3-1.49,6.12-2.23,9.18Z"/><path class="cls-12" d="M270,433c9.09.76,9.09.76,11.26,9.88,1.51,6.32,1.51,6.32-5.07,6.33-4.79,0-9.59,0-14.39,0-1.37,0-3.08.69-3.81-1.31q0-7,0-14l1-.93A48.09,48.09,0,0,0,270,433Z"/><path class="cls-6" d="M127.06,432.65c5.09.07,10.19.36,15.26.12,3.36-.15,4.45,1,3.81,4.16-.65,3.35-1.29,6.7-1.94,10.05-7.44-.06-14.88-.11-22.31-.2-.92,0-2,.28-2.58-.88-.73-1.53,3-11.88,4.73-13.25Z"/><path class="cls-7" d="M170,433c2.37,4.35.65,9,1.06,13.53.12,1.27-.87,1.64-2,1.64-7.14,0-14.28,0-21.42,0-.27,0-.54-.7-.82-1.07a43.56,43.56,0,0,0,2.78-9.89c.82-1.38.66-3.31,2.39-4.17A131.57,131.57,0,0,0,170,433Z"/><path class="cls-10" d="M195,433c2.56,4.13.79,8.67,1.17,13,.14,1.66-1.59,1.4-2.65,1.52-5.13.55-10.27.92-15.39,1.56-2.38.3-2.94-.68-2.73-2.75a23.14,23.14,0,0,0,0-2.5c0-10,0-10,9.6-10.79A39.3,39.3,0,0,0,195,433Z"/><path class="cls-10" d="M224,433c2.57,3.81,1.38,8.23,2,12.36.19,1.23-.61,1.8-1.77,1.79-6.75,0-13.5,0-20.25-.13-.31,0-.61-.7-.91-1.08a48.09,48.09,0,0,0,0-11l1-1.91Z"/><path class="cls-12" d="M303,433c3.95,3.73,3.83,9.13,6.47,14.24h-21c-.84,0-1.86,0-2-1-.65-4.42-3.71-8.41-2.41-13.19A146.75,146.75,0,0,0,303,433Z"/><path class="cls-10" d="M338.94,433.06c5.16.09,10.32.43,15.46.16,3.61-.18,5.62.85,7.26,4.27,4.7,9.77,4.88,9.68-5.72,9.68-13.23,0-13.24,0-18.49-12.17a6,6,0,0,1-.14-1.91Z"/><path class="cls-12" d="M333.8,433.35c.69,4.38,3.76,9.9,1.55,12.8s-8.36.88-12.75,1c-8.94.16-8.79,0-9.78-9.72-.33-3.24.29-4.56,3.72-4.16A33.12,33.12,0,0,0,322,433Z"/><path class="cls-12" d="M94.56,433.12l.28.11.23-.19,20-.06c.91,4.55-1.55,8.53-2.16,12.82-.27,1.92-2,1.36-3.2,1.37-4.46,0-8.93-.2-13.38.06-3.77.22-5.72-.54-4.06-4.75a7.15,7.15,0,0,0,.2-1.93C93.14,438.07,93.85,435.6,94.56,433.12Z"/><path class="cls-10" d="M241,447.15h-1.49c-10.57,0-11.08-.67-9.72-11.41.25-2,1-2.49,2.81-2.48,5.62.05,11.25,0,16.87,0,1,0,2.26-.11,2.3,1.23.12,3.79.19,7.6,0,11.39-.08,1.53-1.73,1.2-2.82,1.22C246.27,447.17,243.62,447.14,241,447.15Z"/><path class="cls-7" d="M163.11,427.94a.51.51,0,0,0-.23.64l-10.55.61a14.67,14.67,0,0,0-1.47-.16c-9.88-.21-9.67-.15-7-9.75,1.25-4.56,5-1.84,7.22-3.27l2-.1,7-.33c5.78.27,5.75.26,4.36,6.07C163.86,423.73,163.52,425.84,163.11,427.94Z"/><path class="cls-10" d="M380.87,448.27c-9.81-.15-9.73-.18-14.1-11.91-1-2.66-.3-3.26,2.19-3.06,1.16.09,2.33,0,3.49,0,12.32,0,12.21,0,16.93,11.4,1.33,3.19.37,3.76-2.53,3.58C384.87,448.17,382.86,448.27,380.87,448.27Z"/><path class="cls-12" d="M192.05,428.86c-.05-1.5-.12-3-.13-4.49,0-7.41,0-7.41,7.09-7.46l2,.13,13.78,1.32c-.14,3.27.87,7.38-.72,9.62-2,2.72-6.46.37-9.76,1.21H195Z"/><path class="cls-7" d="M124.05,428.84l-9.87-1.16c0-3.51,0-7,0-10.53,7.62-1,15.28-.19,22.91-.42,1.87-.06,2.37.74,1.54,2.45-1.3,2.7-2.39,5.51-3.85,8.11-1.86,3.31-5.22.7-7.72,1.66Z"/><path class="cls-7" d="M69.59,412.31c-3.31,0-6.63-.07-10,0-2.43.06-2.67-.76-2-3,2.33-7.19,2.23-7.23,9.91-7.23,4.32,0,8.63.11,12.94,0,2.56-.09,3.43.42,2.89,3.32-1.28,6.86-1.09,6.9-7.86,6.9Z"/><path class="cls-12" d="M324.54,429.05c-4-10.47-4-10.47,6.76-11.6,10.46-1.09,11-.69,14.44,10.41l-7.81.9Z"/><path class="cls-6" d="M182,417a20.24,20.24,0,0,0,2.36.66c4,.66,6.47,5.6,4.58,9.33-.81,1.59-2.26,1.06-3.47,1.07-6.6,0-13.21,0-19.82,0,1-4,1-9.08,3.84-11.57,2.65-2.31,7.24.62,11,.6C181,417.07,181.52,417,182,417Z"/><path class="cls-10" d="M284,429.18c-3.48-.06-7-.23-10.45-.16-2.13.05-2.76-.7-2.92-2.84-.6-7.91-.7-7.9,7.2-7.9,3.32,0,6.65.15,10,0a3.38,3.38,0,0,1,4,2.74c.88,7.68.88,7.68-7.28,8.11A3.86,3.86,0,0,0,284,429.18Z"/><path class="cls-6" d="M364.79,416.45l8.28,11.63H353.18c-1.73,0-2.11-1.31-2.58-2.57q-1.86-4.89-3.73-9.78l7.13-.56a8.07,8.07,0,0,0,4.91,0C360.78,416,363.05,415,364.79,416.45Z"/><path class="cls-11" d="M255.79,412.49c-5.95.06-11.9.06-17.85.22-2.14.06-2.76-.72-2.9-2.84-.54-7.73-.63-7.72,6.93-7.72h10.41c1.47,0,3.09-.3,3.44,1.81A27.73,27.73,0,0,0,255.79,412.49Z"/><path class="cls-12" d="M240.92,419c-.56,10-.56,10-10.54,10-2.12,0-4.24.13-6.36.2-6.32-.51-6.28-.51-5.91-7.4.09-1.77,0-3.35,2.52-3.25C227.39,418.8,234.17,418,240.92,419Z"/><path class="cls-10" d="M301,413c-3.49,0-7-.44-10.44.05-5,.71-6.52-1.24-7-6-.44-4,.14-5.5,4.28-4.92a37.59,37.59,0,0,0,5,0c9.49,0,10.11.66,10.22,10.76Z"/><path class="cls-11" d="M88.06,411.87c-4.12-1.8-.39-4.14-.3-6.17.08-1.68.51-3.68,3.17-3.63,5.16.11,10.32,0,15.48.05.74,0,1.63-.23,2,.88.71,2-2.18,7.92-4.39,8.87A97,97,0,0,0,88.06,411.87Z"/><path class="cls-12" d="M258,403.94c.62-2.07,2.34-1.45,3.73-1.46,3.82,0,7.66.24,11.46,0,3.34-.23,4.65.87,5,4.29.6,6.28.82,6.24-5.7,6.19-3.81,0-7.63,0-11.44,0-1.88-.16-3-.85-2.83-3.08A49.59,49.59,0,0,0,258,403.94Z"/><path class="cls-12" d="M134.52,402.12a7.38,7.38,0,0,1,0,1.39c-2.23,8.81-2.23,8.81-11.31,8.81h-4.48c-8,0-8.16-.31-5.12-7.87.65-1.62,1.36-2.39,3.17-2.36C122.69,402.18,128.61,402.12,134.52,402.12Z"/><path class="cls-11" d="M229.55,412.77H211.47l-.3-6.82c0-2.6.7-4.21,4-3.88a53.84,53.84,0,0,0,10.77,0c3.26-.33,3.94,1.27,4,3.88Q229.71,409.37,229.55,412.77Z"/><path class="cls-11" d="M259,429.19c-1-.07-2-.19-3-.2-10.21-.12-10.21-.11-9.85-10.61l18.68,0q.07,5.28.13,10.58Z"/><path class="cls-7" d="M95,429.17c-2.59,0-4.42-.51-3.93-3.85a38.88,38.88,0,0,0,0-6.38c5.62-.88,11.28-.22,16.91-.4,4.86-.15,2.7,3.59,2.92,5.73s1.19,4.88-2.91,4.7C103.68,428.8,99.36,429.08,95,429.17Z"/><path class="cls-11" d="M296.05,419.94c.32-1.81,1.68-1.7,3-1.69,4,0,8,.12,11.95,0,2.23-.08,3.16,1,4,2.86,3.11,7.1,3.17,7.17-4.53,7-4.78-.09-9.61.63-14.36-.47C296.1,425.07,296.07,422.51,296.05,419.94Z"/><path class="cls-7" d="M305.59,404c5.81-.53,10.92-1.09,16-1.41,3.56-.22,7.61,6,6.32,9.41-.5,1.33-1.6.94-2.49,1-4.49.06-9,.25-13.47,0C306.51,412.62,308.29,407.17,305.59,404Z"/><path class="cls-10" d="M151,412.35c-3.65-.19-7.29-.58-10.93-.51-3.25.06-3.16-1.06-2.57-3.82,1-4.72,3.28-6.79,8.14-5.95a34.28,34.28,0,0,0,5,.05c6.75.16,6-1.51,6.4,6.36.15,3.28-1.23,4-4,4Z"/><path class="cls-11" d="M161.26,412.83c0-.82,0-1.63,0-2.44.17-4.95,2.21-7.41,7.63-6.57,3.21.5,6.56.13,9.85.08,1.57,0,3,0,3.26,2,0,2,0,4,0,6a.38.38,0,0,0-.1.58Z"/><path class="cls-7" d="M346.93,413.21c-3.29-.06-6.59-.25-9.88-.15-2.13.06-3.22-.54-3.89-2.72-2-6.4-2.05-6.4,4.73-6.4h6.44c8.22,0,8.47.24,9.66,9.14Z"/><path class="cls-13" d="M240.92,419c-6.75-1-13.53-.17-20.29-.45-2.47-.1-2.43,1.48-2.52,3.25-.37,6.89-.41,6.89,5.91,7.4,0,1.27,0,2.54,0,3.81l-20,0c.09-1.28.19-2.55.28-3.83,3.3-.84,7.8,1.51,9.76-1.21,1.59-2.24.58-6.35.72-9.62,1.28-1.83,3.36-2.27,5.26-2.33,6.15-.19,12.31-.16,18.47,0C240.07,416,242.7,415.9,240.92,419Z"/><path class="cls-13" d="M95,429.17c4.32-.09,8.64-.37,12.94-.2,4.1.18,3.12-2.69,2.91-4.7s1.94-5.88-2.92-5.73c-5.63.18-11.29-.48-16.91.4-1.38-1.24-.5-2.56.59-2.58,7.51-.16,15.1-1.76,22.51.79,0,3.51,0,7,0,10.53-3.71,2.42,1,3.46.86,5.3l-20,.06Z"/><path class="cls-11" d="M199,412.93c-2.31-.08-4.67-.49-6.93-.17-4.48.65-5.17-1.44-5-5.31.12-2.9,1.05-3.72,3.78-3.56,3.31.2,6.63,0,10,.07,2.1.05,4.86-1,4.65,3-.16,3.15.57,6.57-4.44,5.93Z"/><path class="cls-13" d="M47.78,429l35.8.12c.68,2.92,5.16.41,5.48,3.84q-23,.67-46,0C43.28,430,47.17,431.47,47.78,429Z"/><path class="cls-13" d="M161.26,412.83l20.6-.31L182,417c-.49,0-1,.05-1.48.05-3.79,0-8.38-2.91-11-.6-2.87,2.49-2.85,7.55-3.84,11.57l-2.55-.1c.41-2.1.75-4.21,1.25-6.29,1.39-5.81,1.42-5.8-4.36-6.07C160,414.48,160,413.37,161.26,412.83Z"/><path class="cls-13" d="M372.92,413.22l24-.27c.73,2.49,4.71,1,5,4l-29,.1Z"/><path class="cls-13" d="M296.05,419.94c0,2.57.05,5.13.08,7.7-.55.76-1.65,1.6-1.54,2.26.23,1.51,1.78.79,2.79,1.05,1.92.48,4.74-1.43,5.59,2a146.75,146.75,0,0,1-19,0l0-3.82a3.86,3.86,0,0,1,.49-.1c8.16-.43,8.16-.43,7.28-8.11Z"/><path class="cls-13" d="M264.83,418.34l-18.68,0c.33-4,3.43-2.14,5.37-2.37,2.33-.28,5,.3,4.27-3.52a27.73,27.73,0,0,1,0-8.53l2.15,0a49.59,49.59,0,0,1,.19,6c-.18,2.23.95,2.92,2.83,3.08-.05,1.55.21,2.85,2.15,3C264.56,416.1,264.93,417.08,264.83,418.34Z"/><path class="cls-13" d="M91.89,468.9c.22-5.45,3.44-10.33,3-15.9l4.27-.07a88.8,88.8,0,0,1-4,16Z"/><path class="cls-13" d="M324.54,429.05l13.39-.29c.34,1.43.68,2.87,1,4.3l-1.63,0-3.51.26L322,433C321.94,431.13,324,430.55,324.54,429.05Z"/><path class="cls-13" d="M152.33,429.19l10.55-.61c.23,2.19,1.74,2.38,3.49,2.37,1.57,0,3.4-.36,3.65,2a131.57,131.57,0,0,1-18,0Z"/><path class="cls-13" d="M398.88,448.59l9.67.45.36,4a42.85,42.85,0,0,1-11,0C398.25,451.56,398.57,450.08,398.88,448.59Z"/><path class="cls-13" d="M253,453.06a130,130,0,0,1-19-.15c.3-.55.6-1.57.92-1.57C241,451.2,247.31,449.32,253,453.06Z"/><path class="cls-13" d="M259,429.19l6-.27c.91,2.3,4.65,1.13,5,4.1a48.09,48.09,0,0,1-11,0C259,431.73,259,430.46,259,429.19Z"/><path class="cls-13" d="M149.65,437.17a43.56,43.56,0,0,1-2.78,9.89l-2.68-.08c.65-3.35,1.29-6.7,1.94-10.05Z"/><path class="cls-13" d="M88.06,411.87a97,97,0,0,1,16,0c-.17,1.05-.57,2-1.8,2q-6.19.06-12.39,0C88.63,413.84,88.23,412.92,88.06,411.87Z"/><path class="cls-13" d="M131.44,464q1.2-6.09,2.42-12.18l1.51.29q-.21,5.94-.43,11.87Z"/><path class="cls-13" d="M258,433.93q0,7,0,14C255.09,445.16,255.12,436.6,258,433.93Z"/><path class="cls-13" d="M255.86,470a51.94,51.94,0,0,1,0-14.09A18.77,18.77,0,0,1,255.86,470Z"/><path class="cls-13" d="M192.05,428.86l3,.32,0,3.8a39.3,39.3,0,0,1-10,0c.17-2.14,1.72-2.06,3.25-2.09S191.76,431.31,192.05,428.86Z"/><path class="cls-13" d="M203.06,434.93a48.09,48.09,0,0,1,0,11C200.1,443.25,200.1,437.61,203.06,434.93Z"/><path class="cls-13" d="M94.56,433.12c-.71,2.48-1.42,4.95-2.12,7.43a3.78,3.78,0,0,0-3-1.88c.45-1.87.9-3.75,1.34-5.62Z"/><path class="cls-13" d="M346.93,413.21l7.06-.13c0,.7,0,1.39,0,2.09l-7.13.56Z"/><path class="cls-13" d="M364.79,416.45c-1.74-1.43-4-.44-5.88-1.28.37-1.15.75-2.3,1.12-3.44,1,1.27,2.57,1.21,4,1.49C364.27,414.3,364.53,415.37,364.79,416.45Z"/><path class="cls-13" d="M229.55,412.77q.16-3.4.31-6.82C233,408.52,232.92,410.9,229.55,412.77Z"/><path class="cls-13" d="M211.17,406l.3,6.82C208.07,410.91,208,408.51,211.17,406Z"/><path class="cls-13" d="M182,411.94c0-2,0-4,0-6C185.11,408,185.17,410,182,411.94Z"/><path class="cls-13" d="M124.05,428.84l3,.11,0,3.7h-3Z"/><path class="cls-13" d="M199,412.93h2c0,1.37,0,2.74,0,4.11l-2-.13Z"/><path class="cls-13" d="M105.05,451.92l-4,.08c.11-1.07.48-1.9,1.71-2A1.86,1.86,0,0,1,105.05,451.92Z"/><path class="cls-13" d="M151,412.35l2.05.09,0,3.47-2,.1Z"/><path class="cls-13" d="M78.06,471.93l4-.09c-.11,1.06-.48,1.9-1.72,2A1.86,1.86,0,0,1,78.06,471.93Z"/><path class="cls-13" d="M113.05,471.91l4-.08c-.1,1.07-.47,1.91-1.71,2A1.87,1.87,0,0,1,113.05,471.91Z"/><path class="cls-13" d="M301,413l2-.12c-.13.73-.07,1.73-1.16,1.57C301.46,414.39,301.24,413.49,301,413Z"/><path class="cls-13" d="M389.94,429.14c.67-.16,1,.13,1,.79Z"/><path class="cls-14" d="M329.37,280.81c-10.9-3.11-20.53-5.53-29.92-8.66-5.76-1.92-9.71-1.23-14.45,3.15-26.64,24.62-66.3,27.86-97.14,8.67-8.14-5.07-15-11.47-21.76-18.2-3.15-3.15-2.58-5.11-.18-8.23q45.84-59.58,91.47-119.3c12.65-16.52,25.41-33,38-49.54,2-2.64,2.85-2.92,4.63.23,20,35.48,28.9,73.48,25.82,114.12a164.87,164.87,0,0,1-9,42.31,13.16,13.16,0,0,0,.91,11.68C321.69,264.34,325.08,271.93,329.37,280.81Zm-49.21-99.38c-3.32,3.62-5.92,6.67-8.74,9.49-7.64,7.65-7.68,7.61-14.33-1.17-5.82-7.7-5.82-7.7-12.43-.91-7.92,8.13-7.91,8.12-1.09,17,2.44,3.16,6.36,6.2,6.74,9.62s-4,6.49-6.34,9.71c-7.28,10.19-7.32,10.17.61,19.86,4.45,5.45,4.45,5.45,9.08-.16,1-1.16,1.89-2.33,2.83-3.49,6.37-7.87,6.37-7.87,14-1.07,9.35,8.34,9.28,8.27,17.76-.94,1.76-1.91,1.68-3.2.28-5.1-3.47-4.69-6.67-9.57-10.24-14.18-2.16-2.78-2.69-4.82.27-7.53,3.54-3.25,6.52-7.11,9.85-10.6,1.45-1.52,1.92-2.8.71-4.79C286.2,192.3,283.51,187.33,280.16,181.43Z"/><path class="cls-15" d="M218.73,43.12c22.06.86,43,9.59,61.39,24.67,1.53,1.24,2.62,3,4,4.42,2.31,2.37,2,4.56.05,7q-33,41.55-66,83.17Q188.59,199.72,159,237c-2.89,3.65-5.76,7.3-8.57,11-2.25,3-3.75,3.62-5.75-.5-3.34-6.88-7.41-13.39-10.9-20.2-1.36-2.65-3.13-3.4-5.94-3.37-8.47.12-16.94-.09-25.4-.8-3.47-.29-3.64-1.09-1.75-3.7,4.48-6.19,8.55-12.71,13.29-18.69a18,18,0,0,0,4.1-12.79,179.73,179.73,0,0,1,9.95-67.59c6.77-19.36,16.58-37.06,31.08-51.75C175,52.64,194,43.54,218.73,43.12ZM227.08,107c.31-4.41-3.36-6.65-5.58-9.6-5.51-7.36-8.41-7.21-14.11,0-6.5,8.2-13.19,16.23-19.68,24.42-2,2.49-3.49,2.53-5.42,0-2.33-3-4.95-5.81-7.27-8.83a5.79,5.79,0,0,0-5.58-2.54c-8.21,1.19-13.12,11.88-8.69,18.69a240.2,240.2,0,0,0,21.91,28.35c2.69,3,3.77,1.8,5.54-.38q18.6-23.06,37.29-46.06A5.51,5.51,0,0,0,227.08,107Z"/><path class="cls-16" d="M280.16,181.43c3.35,5.9,6,10.87,9,15.7,1.21,2,.74,3.27-.71,4.79-3.33,3.49-6.31,7.35-9.85,10.6-3,2.71-2.43,4.75-.27,7.53,3.57,4.61,6.77,9.49,10.24,14.18,1.4,1.9,1.48,3.19-.28,5.1-8.48,9.21-8.41,9.28-17.76.94-7.64-6.8-7.64-6.8-14,1.07-.94,1.16-1.87,2.33-2.83,3.49-4.63,5.61-4.63,5.61-9.08.16-7.93-9.69-7.89-9.67-.61-19.86,2.3-3.22,6.73-6.2,6.34-9.71s-4.3-6.46-6.74-9.62c-6.82-8.84-6.83-8.83,1.09-17,6.61-6.79,6.61-6.79,12.43.91,6.65,8.78,6.69,8.82,14.33,1.17C274.24,188.1,276.84,185.05,280.16,181.43Z"/><path class="cls-1" d="M227.08,107a5.51,5.51,0,0,1-1.59,4.07q-18.69,23-37.29,46.06c-1.77,2.18-2.85,3.4-5.54.38a240.2,240.2,0,0,1-21.91-28.35c-4.43-6.81.48-17.5,8.69-18.69A5.79,5.79,0,0,1,175,113c2.32,3,4.94,5.82,7.27,8.83,1.93,2.5,3.45,2.46,5.42,0,6.49-8.19,13.18-16.22,19.68-24.42,5.7-7.2,8.6-7.35,14.11,0C223.72,100.38,227.39,102.62,227.08,107Z"/></g></g></svg>